<?xml version="1.0" encoding="UTF-8"?>
<svg id="Layer_1" data-name="Layer 1" xmlns="http://www.w3.org/2000/svg" xmlns:xlink="http://www.w3.org/1999/xlink" viewBox="0 0 545.89 545.89">
  <defs>
    <style>
      .cls-1 {
        fill: url(#linear-gradient);
      }

      .cls-2 {
        fill: #fff;
      }
    </style>
    <linearGradient id="linear-gradient" x1="65.85" y1="267.55" x2="482.29" y2="267.55" gradientTransform="translate(-1.12 5.4)" gradientUnits="userSpaceOnUse">
      <stop offset=".41" stop-color="#39b747"/>
      <stop offset=".49" stop-color="#3eb845"/>
      <stop offset=".59" stop-color="#4ebc41"/>
      <stop offset=".7" stop-color="#67c33a"/>
      <stop offset=".83" stop-color="#8bcd30"/>
      <stop offset=".95" stop-color="#b9d924"/>
      <stop offset="1" stop-color="#cddf1f"/>
    </linearGradient>
  </defs>
  <rect class="cls-1" x="64.73" y="64.73" width="416.44" height="416.44" rx="51.95" ry="51.95" transform="translate(-113.06 272.95) rotate(-45)"/>
  <path class="cls-2" d="m326.22,177.9c0,2.19,0,3.84,0,5.5,0,41.62.04,83.24-.02,124.87-.02,18.61-9.41,33.2-26.61,41.41v-88.87c-1.01.47-1.65.71-2.22,1.05-24.94,14.4-49.85,28.82-74.82,43.16-1.65.95-1.78,2.1-1.78,3.68.02,38.87.02,77.74.02,116.61,0,1.06,0,2.11,0,3.62-2.84-1.04-5.4-1.92-7.92-2.9-33.89-13.18-62.98-33.07-85.56-61.87-19.36-24.7-30.97-52.62-33.06-84.08-2.49-37.57,8.27-71.35,30.74-101.35,25.42-33.94,59.4-55.76,99.27-68.98,2.69-.89,5.39-1.74,8.14-2.43.87-.22,1.88.17,2.83.28-.69.65-1.26,1.6-2.07,1.9-11.09,4.06-21.76,9.01-31.85,15.16-29.25,17.84-51.87,41.72-63.93,74.12-17.74,47.65-8.73,90.93,23.51,129.71,8.95,10.77,19.51,19.84,30.93,27.9.56.39,1.16.72,2.05,1.26.07-1.24.17-2.16.17-3.09,0-41.98.08-83.95-.06-125.93-.06-19.48,8.76-33.28,25.73-42.23.22-.12.48-.15.95-.3v88.75c.91-.4,1.53-.6,2.09-.92,25.01-14.44,50.01-28.9,75.05-43.29,1.55-.89,1.68-1.98,1.68-3.47-.02-38.96-.02-77.92-.02-116.88v-3.67c5.99,2.4,11.63,4.45,17.11,6.88,36.06,15.96,65.9,39.44,86.92,73.23,17.19,27.63,24.91,57.81,22.44,90.33-2.43,32.02-14.52,60.29-34.65,85.1-25.57,31.53-58.59,52-96.93,64.35-2.19.71-4.38,1.44-6.62,1.94-.84.19-1.83-.27-2.75-.43.66-.59,1.22-1.4,1.98-1.74,7.83-3.51,15.94-6.48,23.49-10.49,31.58-16.77,56.45-40.44,70.32-73.8,21.15-50.89,11.59-96.96-24.32-138.03-8.33-9.52-18.01-17.58-28.35-24.84-.43-.3-.88-.56-1.88-1.18Z"/>
</svg>