<?xml version="1.0" encoding="utf-8"?>
<!-- Generator: Adobe Illustrator 27.5.0, SVG Export Plug-In . SVG Version: 6.00 Build 0)  -->
<svg version="1.1" id="Layer_1" xmlns="http://www.w3.org/2000/svg" xmlns:xlink="http://www.w3.org/1999/xlink" x="0px" y="0px"
	 viewBox="0 0 625.18 625.18" style="enable-background:new 0 0 625.18 625.18;" xml:space="preserve">
<style type="text/css">
	.st0{fill:url(#SVGID_1_);}
</style>
<linearGradient id="SVGID_1_" gradientUnits="userSpaceOnUse" x1="78.416" y1="312.5886" x2="546.7611" y2="312.5886">
	<stop  offset="0.4103" style="stop-color:#39B747"/>
	<stop  offset="0.4908" style="stop-color:#3EB846"/>
	<stop  offset="0.5922" style="stop-color:#4EBD41"/>
	<stop  offset="0.7047" style="stop-color:#68C43A"/>
	<stop  offset="0.8254" style="stop-color:#8CCD31"/>
	<stop  offset="0.9513" style="stop-color:#B9DA24"/>
	<stop  offset="1" style="stop-color:#CDDF1F"/>
</linearGradient>
<path class="st0" d="M405.68,186.02c0,3.08,0,5.42,0,7.75c0,58.63,0.05,117.26-0.02,175.89c-0.03,26.21-13.25,46.76-37.48,58.32
	c0-41.7,0-83.18,0-125.19c-1.43,0.67-2.32,1-3.13,1.47c-35.12,20.28-70.22,40.6-105.4,60.79c-2.33,1.34-2.51,2.96-2.51,5.18
	c0.03,54.75,0.02,109.51,0.02,164.26c0,1.49,0,2.98,0,5.1c-4-1.46-7.6-2.71-11.16-4.09c-47.74-18.56-88.72-46.58-120.52-87.15
	c-27.28-34.79-43.63-74.12-46.56-118.44c-3.51-52.92,11.65-100.51,43.3-142.76c35.81-47.8,83.68-78.54,139.83-97.17
	c3.78-1.26,7.6-2.45,11.46-3.42c1.22-0.3,2.65,0.24,3.98,0.39c-0.97,0.91-1.78,2.25-2.92,2.67c-15.62,5.72-30.65,12.69-44.86,21.35
	c-41.2,25.13-73.06,58.77-90.05,104.41c-24.98,67.12-12.3,128.09,33.12,182.71c12.61,15.16,27.48,27.94,43.57,39.29
	c0.78,0.55,1.63,1.01,2.89,1.78c0.1-1.74,0.24-3.05,0.24-4.35c0-59.13,0.11-118.26-0.08-177.39c-0.09-27.43,12.34-46.88,36.25-59.49
	c0.31-0.16,0.67-0.22,1.34-0.42c0,41.61,0,83.03,0,125.02c1.28-0.56,2.16-0.85,2.94-1.3c35.23-20.34,70.45-40.71,105.72-60.97
	c2.19-1.26,2.36-2.79,2.36-4.89c-0.03-54.88-0.03-109.76-0.03-164.64c0-1.46,0-2.92,0-5.17c8.44,3.38,16.39,6.27,24.1,9.69
	c50.8,22.49,92.83,55.55,122.43,103.15c24.21,38.93,35.09,81.43,31.61,127.23c-3.42,45.1-20.46,84.92-48.8,119.88
	c-36.02,44.42-82.53,73.25-136.54,90.65c-3.08,0.99-6.17,2.03-9.33,2.73c-1.19,0.26-2.58-0.38-3.87-0.61
	c0.92-0.83,1.71-1.97,2.8-2.45c11.02-4.95,22.45-9.12,33.09-14.77c44.48-23.62,79.52-56.97,99.05-103.96
	c29.79-71.68,16.33-136.57-34.26-194.42c-11.73-13.41-25.37-24.76-39.93-35C407.73,187.26,407.09,186.9,405.68,186.02z"/>
</svg>
